<svg xmlns="http://www.w3.org/2000/svg" viewBox="0 0 265 265">
  <path class="surface" d="M136.6 101.2h-6.9v8h6.9v-8zm79.3 36.9s-46.6-23.6-50-24.3c0 0-10.7 12.4-29.2 12.4-21.2 0-28.9-12.4-28.9-12.4-3.4.8-49.7 24.4-49.7 24.4l9.4 34.8 28.3-14.6-5.7 99.7h93.5l-6-99.6 28.6 14.4 9.7-34.8z"></path><path class="outline" d="M178 263.4l-5.8-97.5 28.2 14.3 10-36.4-.5-.3c-1.9-1-46.7-23.6-50.2-24.4l-.4-.1-.3.3s-1.4 1.6-4 3.6l.1-.2-23.9-8.3v-1.6h3.5v-9.5H131v-2.4c2.3-.5 10.3-3 10.7-11 .4-8.4-5.1-12.5-10.9-12.9-5.7-.4-12.1 2.9-12.7 9.9l1.5.1c.5-6 6.1-8.9 11.1-8.6 4.6.3 9.9 3.5 9.5 11.3-.4 8.2-9.7 9.7-10.1 9.8l-.6.1v3.7h-3.2v9.5h3.4v1.6l-24.7 8.3c-1.9-1.8-2.8-3.1-2.8-3.2l-.3-.4-.5.1c-3.4.8-48 23.5-49.9 24.4l-.5.3 9.8 36.3 28-14.4-5.6 97.6H.3v1.6l265-.1v-1.5H178zm-50.3-152.2v-6.5h5.4v6.5h-5.4zm2.7 4.5l23.3 8.1c-4.8 3.5-12.8 7.6-23.4 7.6-12.2 0-19.9-4.3-24.1-7.7l24.2-8zM84.5 263.4l5.8-100.2-28.7 14.7-9-33.3c12.7-6.5 43.7-22.1 48.5-23.9 1.7 2.4 10 12.3 29.2 12.3 16.8 0 27.4-10.2 29.4-12.3 4.6 1.6 36 17.4 48.9 23.9l-9.3 33.4-28.9-14.7 6 100.1H84.5z"></path><path class="bubbles" d="M230.3 163.9c-2.5 0-4.4 2-4.4 4.4 0 2.5 2 4.4 4.4 4.4s4.4-2 4.4-4.4c0-2.5-2-4.4-4.4-4.4zm-202-58.6c2.5 0 4.4-2 4.4-4.4s-2-4.4-4.4-4.4-4.4 2-4.4 4.4c0 2.4 2 4.4 4.4 4.4zm129.6-86.9c-2.3 0-4.1 1.8-4.1 4.1s1.8 4.1 4.1 4.1 4.1-1.8 4.1-4.1-1.8-4.1-4.1-4.1zM28.3 174.8c-3.2 0-5.9 2.6-5.9 5.9s2.6 5.9 5.9 5.9c3.2 0 5.9-2.6 5.9-5.9s-2.6-5.9-5.9-5.9zM206.9 50c-2.6 0-4.7 2.1-4.7 4.7s2.1 4.7 4.7 4.7 4.7-2.1 4.7-4.7-2.1-4.7-4.7-4.7zm-145 67.6c-1.3 0-2.3 1-2.3 2.3s1 2.3 2.3 2.3 2.3-1 2.3-2.3c0-1.3-1-2.3-2.3-2.3zm-55 22c-1.3 0-2.3 1-2.3 2.3s1 2.3 2.3 2.3 2.3-1 2.3-2.3c0-1.3-1-2.3-2.3-2.3zm72-133.8c-1.3 0-2.3 1-2.3 2.3s1 2.3 2.3 2.3 2.3-1 2.3-2.3c0-1.3-1-2.3-2.3-2.3zm-27.2 49c-1.3 0-2.3 1-2.3 2.3s1 2.3 2.3 2.3 2.3-1 2.3-2.3-1-2.3-2.3-2.3zm-31-20c-1.3 0-2.3 1-2.3 2.3s1 2.3 2.3 2.3 2.3-1 2.3-2.3-1-2.3-2.3-2.3zm87.6-3.4c1.3 0 2.3-1 2.3-2.3s-1-2.3-2.3-2.3-2.3 1-2.3 2.3 1 2.3 2.3 2.3zm49.6 28.1c-1.3 0-2.3 1-2.3 2.3s1 2.3 2.3 2.3 2.3-1 2.3-2.3-1-2.3-2.3-2.3zm96.5 7c-1.3 0-2.3 1-2.3 2.3 0 1.3 1 2.3 2.3 2.3 1.3 0 2.3-1 2.3-2.3 0-1.3-1-2.3-2.3-2.3zm-38-48c-1.3 0-2.3 1-2.3 2.3s1 2.3 2.3 2.3c1.3 0 2.3-1 2.3-2.3s-1-2.3-2.3-2.3zm-34.3 79.8c-1.3 0-2.3 1-2.3 2.3s1 2.3 2.3 2.3 2.3-1 2.3-2.3-1-2.3-2.3-2.3zm39.2 10.1c-1.3 0-2.3 1-2.3 2.3s1 2.3 2.3 2.3 2.3-1 2.3-2.3-1-2.3-2.3-2.3zm-120.5-40c-2.6 0-4.7 2.1-4.7 4.7s2.1 4.7 4.7 4.7 4.7-2.1 4.7-4.7-2.1-4.7-4.7-4.7zm149.8 72.4c-1.3 0-2.3 1-2.3 2.3s1 2.3 2.3 2.3 2.3-1 2.3-2.3c0-1.3-1-2.3-2.3-2.3z"></path>
</svg>
