<svg xmlns="http://www.w3.org/2000/svg" width="24px" height="24px" viewBox="0 0 24 24"><path d="M21.9206803,2.07973917 C24.6916599,4.85172473 24.6916599,9.3487013 21.9206803,12.1216869 L18.0807087,15.9606669 L15.9597243,13.8386779 L19.798696,9.99869792 C21.3976842,8.40070624 21.3976842,5.79971979 19.797696,4.20172811 C18.1997078,2.60273644 15.598727,2.60273644 14.0007387,4.20072812 L10.1607671,8.03970812 L8.03978272,5.91871917 L11.8797544,2.07973917 C14.650734,-0.693246389 19.1467008,-0.693246389 21.9206803,2.07973917 Z M13.8387399,15.9586669 L9.99876827,19.7976469 C8.40078005,21.3976385 5.79979924,21.3966385 4.19981104,19.7976469 C2.60182283,18.1996552 2.60182283,15.5976688 4.19981104,14.0006771 L8.03978272,10.1606971 L5.91879836,8.03970812 L2.07882668,11.8796881 C-0.692152876,14.6516737 -0.693152869,19.1476503 2.07882668,21.9206358 C4.85180623,24.6926214 9.34877306,24.6936214 12.1197526,21.9206358 L15.9597243,18.0806558 L13.8387399,15.9586669 Z"></path></svg>
