<svg xmlns="http://www.w3.org/2000/svg" width="24" height="24" viewBox="0 0 24 24"><path d="M8 4.5L4.5 8l16 16 3.5-3.5-16-16zm2.4 7.7L6.3 8 8 6.3l4.2 4.2-1.8 1.7zM15 7c.2-.2.5-1.3.8-2.7 1.3-.3 2.5-.6 2.7-.8-.2-.2-1.3-.5-2.7-.8-.3-1.4-.6-2.5-.8-2.7-.2.2-.5 1.3-.8 2.7-1.3.3-2.5.6-2.7.8.2.2 1.3.5 2.7.8.3 1.4.6 2.5.8 2.7zM4 13c-.2.2-.5 1.3-.8 2.7-1.3.3-2.5.6-2.7.8.2.2 1.3.5 2.7.8.3 1.4.6 2.5.8 2.7.2-.2.5-1.3.8-2.7 1.3-.3 2.5-.6 2.7-.8-.2-.2-1.3-.5-2.7-.8-.3-1.3-.6-2.5-.8-2.7zm-.5-7c.2-.2.5-1.2.7-2.3 1.1-.2 2.1-.5 2.3-.7-.2-.2-1.2-.5-2.3-.7C4 1.2 3.7.2 3.5 0c-.2.2-.5 1.2-.7 2.3-1.1.2-2.1.5-2.3.7.2.2 1.2.5 2.3.7.2 1.1.5 2.1.7 2.3zM2 11c.1-.1.2-.6.4-1.1.6-.1 1.1-.3 1.1-.4-.1-.1-.6-.2-1.1-.4-.2-.5-.3-1-.4-1.1-.1.1-.2.6-.4 1.1-.5.2-1 .3-1.1.4.1.1.6.2 1.1.4.2.5.3 1 .4 1.1z"></path></svg>
